<?xml version="1.0" encoding="UTF-8" standalone="no"?>
<!-- Created with Inkscape (http://www.inkscape.org/) -->

<svg
   version="1.1"
   id="svg2"
   width="413.49332"
   height="88.68"
   viewBox="0 0 413.49332 88.68"
   sodipodi:docname="wifo.svg"
   inkscape:version="1.2.1 (9c6d41e410, 2022-07-14, custom)"
   xmlns:inkscape="http://www.inkscape.org/namespaces/inkscape"
   xmlns:sodipodi="http://sodipodi.sourceforge.net/DTD/sodipodi-0.dtd"
   xmlns="http://www.w3.org/2000/svg"
   xmlns:svg="http://www.w3.org/2000/svg">
  <defs
     id="defs6" />
  <sodipodi:namedview
     id="namedview4"
     pagecolor="#ffffff"
     bordercolor="#666666"
     borderopacity="1.0"
     inkscape:showpageshadow="2"
     inkscape:pageopacity="0.0"
     inkscape:pagecheckerboard="0"
     inkscape:deskcolor="#d1d1d1"
     showgrid="false"
     inkscape:zoom="3.4825231"
     inkscape:cx="207.17738"
     inkscape:cy="44.220813"
     inkscape:window-width="2048"
     inkscape:window-height="1083"
     inkscape:window-x="0"
     inkscape:window-y="0"
     inkscape:window-maximized="1"
     inkscape:current-layer="g10">
    <inkscape:page
       x="0"
       y="0"
       id="page8"
       width="413.49332"
       height="88.68" />
  </sodipodi:namedview>
  <g
     id="g10"
     inkscape:groupmode="layer"
     inkscape:label="Page 1"
     transform="matrix(1.3333333,0,0,-1.3333333,0,88.68)">
    <g
       id="g12"
       transform="scale(0.1)">
      <path
         d="m 2459.13,642.977 h 620.78 V 22.1836 h -620.78 v 620.7934 0"
         style="fill:#ed1c24;fill-opacity:1;fill-rule:evenodd;stroke:none"
         id="path14" />
      <path
         d="m 492.531,644.758 92.219,-337.27 c 5.941,-21.597 11.453,-44.66 16.531,-69.308 5.074,-24.649 9.856,-52.203 14.352,-82.793 0.582,25.812 2.613,51.187 5.801,76.265 3.187,25.086 8.121,50.317 14.644,75.836 l 80.77,337.27 H 848.07 L 685.375,22.8594 H 557.484 L 446.125,419.578 c -5.359,18.117 -9.566,36.387 -12.754,54.809 -3.043,18.406 -5.219,37.547 -6.23,57.418 -1.453,-21.028 -3.633,-40.891 -6.68,-59.453 -2.898,-18.7 -6.813,-36.25 -11.598,-52.774 L 296.637,22.8594 H 168.754 L 6.06641,644.758 H 139.02 l 81.929,-345.391 c 4.641,-19.863 8.262,-41.176 11.164,-64.375 2.754,-23.051 4.93,-48.14 6.375,-75.402 5.367,35.965 15.235,81.637 29.731,136.875 l 2.023,8.844 91.356,339.449 h 130.933 v 0"
         style="fill:#040606;fill-opacity:1;fill-rule:evenodd;stroke:none"
         id="path16" />
      <path
         d="M 1145.74,22.8594 V 644.758 h 366.12 V 532.668 H 1278.7 V 404.637 h 233.16 V 291.688 H 1278.7 V 22.8594 h -132.96 v 0"
         style="fill:#040606;fill-opacity:1;fill-rule:evenodd;stroke:none"
         id="path18" />
      <path
         d="M 941.875,22.8594 V 644.758 h 56.551 V 22.8594 h -56.551 v 0"
         style="fill:#040606;fill-opacity:1;fill-rule:evenodd;stroke:none"
         id="path20" />
      <path
         d="m 2258.75,332.574 c 0,-43.941 -8.42,-85.547 -25.09,-125.133 C 2216.99,168 2192.92,132.77 2161.45,101.887 2129.41,70.7109 2093.3,47.0781 2053,30.6914 2012.83,14.4492 1970.2,6.32422 1925.54,6.32422 c -44.8,0 -87.29,8.12498 -127.31,24.36718 -40.16,16.3867 -76.12,40.0195 -107.88,71.1956 -31.75,31.461 -55.83,66.836 -72.35,105.988 -16.67,39.293 -24.94,80.758 -24.94,124.699 0,44.516 8.27,86.418 24.94,126 16.52,39.442 40.6,74.973 72.35,106.434 31.18,30.734 66.85,54.23 106.73,70.027 40.01,15.813 82.79,23.789 128.46,23.789 45.82,0 88.89,-7.976 128.9,-24.078 40.17,-15.941 75.84,-39.297 107.01,-69.738 31.76,-31.461 55.82,-66.992 72.5,-106.434 16.53,-39.582 24.8,-81.484 24.8,-126 z M 1925.54,56.9297 c 36.83,0 71.63,6.8125 104.55,20.4453 32.91,13.4844 62.49,33.355 88.88,59.453 25.81,26.238 45.53,56.258 59.3,89.754 13.78,33.633 20.59,68.875 20.59,105.992 0,37.406 -6.81,72.641 -20.44,105.992 -13.63,33.207 -33.35,63.219 -59.45,89.754 -25.81,26.102 -55.25,45.969 -88.3,59.453 -32.92,13.625 -68.01,20.442 -105.13,20.442 -36.97,0 -71.63,-6.817 -104.25,-20.442 -32.63,-13.484 -62.06,-33.351 -88.45,-59.453 -26.1,-26.824 -45.82,-56.836 -59.45,-89.754 -13.63,-33.058 -20.44,-68.296 -20.44,-105.992 0,-37.406 6.81,-72.644 20.44,-105.992 13.63,-33.207 33.35,-63.227 59.45,-89.754 26.1,-26.387 55.24,-46.2538 87.58,-59.7421 32.33,-13.4843 67.42,-20.1562 105.12,-20.1562 v 0"
         style="fill:#040606;fill-opacity:1;fill-rule:evenodd;stroke:none"
         id="path22" />
    </g>
  </g>
</svg>
